<svg width="20" height="20" viewBox="0 0 20 20" fill="none" xmlns="http://www.w3.org/2000/svg">
<path d="M18.9525 6.83428C17.7805 3.48828 14.8715 1.09726 11.3615 0.594256C10.4805 0.468256 9.52046 0.468256 8.63947 0.594256C5.12947 1.09726 2.22148 3.48827 1.05048 6.82927C0.685476 7.83827 0.500488 8.90525 0.500488 9.99925C0.500488 11.0933 0.685462 12.1603 1.04846 13.1653C2.22046 16.5113 5.12947 18.9023 8.63947 19.4053C9.08247 19.4683 9.54051 19.5003 9.99951 19.5003C10.4585 19.5003 10.9165 19.4683 11.3605 19.4053C14.8705 18.9023 17.7785 16.5113 18.9495 13.1703C19.3145 12.1613 19.4995 11.0943 19.4995 10.0003C19.4995 8.90626 19.3155 7.83928 18.9525 6.83428ZM17.7235 6.50127H14.1055C13.7555 4.84827 13.1545 3.28126 12.3145 1.81926C14.7225 2.49426 16.6915 4.20327 17.7235 6.50127ZM13.5005 10.0003C13.5005 10.8383 13.4165 11.6753 13.2785 12.5013H6.72247C6.58447 11.6773 6.50049 10.8393 6.50049 10.0003C6.50049 9.16226 6.58447 8.32727 6.72247 7.50127H13.2795C13.4165 8.32427 13.5005 9.16126 13.5005 10.0003ZM10.9965 1.56926C11.9865 3.08626 12.6795 4.74227 13.0785 6.50127H6.92346C7.32146 4.74527 8.01352 3.08826 9.00452 1.56926C9.33052 1.53126 9.66149 1.50026 10.0005 1.50026C10.3395 1.50026 10.6705 1.53126 10.9965 1.56926ZM7.6875 1.81926C6.8465 3.28326 6.24451 4.85127 5.89551 6.50127H2.27747C3.30747 4.20427 5.2775 2.49426 7.6875 1.81926ZM1.88751 7.50127H5.7135C5.5845 8.32627 5.50146 9.16226 5.50146 10.0003C5.50146 10.8403 5.58448 11.6773 5.71448 12.5013H1.88947C1.63747 11.6983 1.50146 10.8603 1.50146 10.0003C1.50046 9.14126 1.63551 8.30527 1.88751 7.50127ZM2.27948 13.5013H5.89746C6.24746 15.1523 6.84848 16.7193 7.68848 18.1803C5.27948 17.5063 3.31148 15.7983 2.27948 13.5013ZM9.00452 18.4303C8.01452 16.9133 7.32246 15.2583 6.92346 13.5013H13.0775C12.6795 15.2573 11.9865 16.9123 10.9965 18.4303C10.3405 18.5063 9.66052 18.5063 9.00452 18.4303ZM12.3135 18.1813C13.1535 16.7193 13.7555 15.1513 14.1045 13.5023H17.7225C16.6915 15.7973 14.7225 17.5063 12.3135 18.1813ZM18.1125 12.5013H14.2875C14.4175 11.6753 14.5005 10.8383 14.5005 10.0003C14.5005 9.16126 14.4175 8.32527 14.2885 7.50127H18.1135C18.3655 8.30327 18.5005 9.14026 18.5005 10.0003C18.5005 10.8593 18.3655 11.6973 18.1125 12.5013Z" fill="#c7c7c7"/>
</svg>
