<svg width="18" height="20" viewBox="0 0 18 20" fill="none" xmlns="http://www.w3.org/2000/svg">
<path d="M17.2408 13.7745L16.1348 11.9285C15.7158 11.2295 15.4948 10.4295 15.4948 9.61652V6.9895C15.4948 3.4105 12.5808 0.499512 8.99977 0.499512C5.41877 0.499512 2.50476 3.4105 2.50476 6.9895V9.61652C2.50476 10.4305 2.28376 11.2295 1.86476 11.9285L0.758761 13.7745C0.420761 14.3375 0.412773 15.0145 0.736773 15.5865C1.06077 16.1585 1.64676 16.5005 2.30376 16.5005H6.56676C6.53276 16.6655 6.50077 16.8315 6.50077 17.0005C6.50077 18.3785 7.62276 19.5005 9.00076 19.5005C10.3788 19.5005 11.5008 18.3785 11.5008 17.0005C11.5008 16.8315 11.4688 16.6655 11.4348 16.5005H15.6978C16.3558 16.5005 16.9418 16.1595 17.2658 15.5865C17.5868 15.0145 17.5788 14.3375 17.2408 13.7745ZM10.4988 16.9995C10.4988 17.8265 9.82577 18.4995 8.99877 18.4995C8.17177 18.4995 7.49877 17.8265 7.49877 16.9995C7.49877 16.8275 7.53877 16.6605 7.59577 16.4995H10.4018C10.4588 16.6605 10.4988 16.8265 10.4988 16.9995ZM16.3928 15.0935C16.2488 15.3475 15.9878 15.4995 15.6958 15.4995H2.30176C2.00976 15.4995 1.74877 15.3475 1.60477 15.0935C1.46077 14.8395 1.46476 14.5395 1.61476 14.2895L2.72077 12.4435C3.23277 11.5895 3.50377 10.6125 3.50377 9.61752V6.99051C3.50377 3.96351 5.96877 1.50052 8.99877 1.50052C12.0288 1.50052 14.4938 3.96351 14.4938 6.99051V9.61752C14.4938 10.6125 14.7648 11.5895 15.2768 12.4435L16.3828 14.2895C16.5328 14.5385 16.5368 14.8395 16.3928 15.0935Z" fill="#41416E"/>
</svg>
