<svg width="18" height="20" viewBox="0 0 18 20" fill="none" xmlns="http://www.w3.org/2000/svg">
<path d="M9.49982 19C9.49982 19.276 9.27582 19.5 8.99982 19.5H4.99982C2.51882 19.5 0.499817 17.481 0.499817 15V5C0.499817 2.519 2.51882 0.5 4.99982 0.5H8.99982C9.27582 0.5 9.49982 0.724 9.49982 1C9.49982 1.276 9.27582 1.5 8.99982 1.5H4.99982C3.06982 1.5 1.49982 3.07 1.49982 5V15C1.49982 16.93 3.06982 18.5 4.99982 18.5H8.99982C9.27582 18.5 9.49982 18.724 9.49982 19ZM17.3538 9.646L13.3538 5.646C13.1588 5.451 12.8418 5.451 12.6468 5.646C12.4518 5.841 12.4518 6.158 12.6468 6.353L15.7928 9.49899H6.99982C6.72382 9.49899 6.49982 9.72299 6.49982 9.99899C6.49982 10.275 6.72382 10.499 6.99982 10.499H15.7928L12.6468 13.645C12.4518 13.84 12.4518 14.157 12.6468 14.352C12.7448 14.45 12.8728 14.498 13.0008 14.498C13.1288 14.498 13.2568 14.449 13.3548 14.352L17.3548 10.352C17.5488 10.158 17.5488 9.842 17.3538 9.646Z" fill="#c7c7c7"/>
</svg>
