<svg width="20" height="20" viewBox="0 0 20 20" fill="none" xmlns="http://www.w3.org/2000/svg">
<path d="M16.715 2.93886L12.317 0.984849C10.867 0.339849 9.13402 0.339849 7.68402 0.984849L3.28601 2.93886C1.56801 3.70286 0.500977 5.24886 0.500977 6.97386V13.0239C0.500977 14.7499 1.56801 16.2949 3.28601 17.0589L7.685 19.0129C8.404 19.3319 9.19302 19.4919 9.98102 19.4949C9.98802 19.4949 9.994 19.4989 10 19.4989C10.006 19.4989 10.013 19.4949 10.019 19.4949C10.808 19.4919 11.596 19.3319 12.315 19.0129L16.714 17.0589C18.432 16.2949 19.499 14.7489 19.499 13.0239V6.97386C19.5 5.24786 18.433 3.70186 16.715 2.93886ZM8.09003 1.89885C8.68803 1.63285 9.344 1.49986 10 1.49986C10.656 1.49986 11.312 1.63285 11.91 1.89885L16.308 3.85286C16.756 4.05186 17.141 4.32087 17.464 4.63387L14.497 5.95287L6.73102 2.50285L8.09003 1.89885ZM3.69098 3.85286L5.5 3.04985L13.267 6.49986L11.305 7.37184C10.52 7.72184 9.48202 7.72184 8.69702 7.37184L2.53601 4.63387C2.85901 4.32087 3.24398 4.05186 3.69098 3.85286ZM3.69098 16.1449C2.33898 15.5439 1.5 14.3489 1.5 13.0239V6.97386C1.5 6.43186 1.64703 5.91486 1.90503 5.44786L8.289 8.28584C8.662 8.45184 9.07602 8.53985 9.49902 8.58785V18.4458C9.01402 18.3948 8.53403 18.2959 8.09003 18.0989L3.69098 16.1449ZM18.5 13.0239C18.5 14.3489 17.66 15.5449 16.309 16.1449L11.91 18.0989C11.465 18.2969 10.986 18.3958 10.501 18.4458V8.58785C10.924 8.53885 11.339 8.45084 11.711 8.28584L18.095 5.44786C18.353 5.91486 18.5 6.43186 18.5 6.97386V13.0239Z" fill="#c7c7c7"/>
</svg>
