<svg width="21" height="20" viewBox="0 0 21 20" fill="none" xmlns="http://www.w3.org/2000/svg">
<path d="M19.3366 1.51843C18.4855 0.700433 17.3532 0.250488 16.147 0.250488C14.9428 0.250488 13.8105 0.700433 12.9574 1.51843L1.98547 12.0515C1.56047 12.4585 1.28341 12.9754 1.18445 13.5444L0.361554 18.2825C0.291762 18.6835 0.42821 19.0935 0.728209 19.3805C0.976126 19.6185 1.31151 19.7495 1.65734 19.7495C1.72818 19.7495 1.80115 19.7445 1.87198 19.7325L6.80839 18.9425C7.40006 18.8485 7.93756 18.5824 8.36256 18.1744L19.3345 7.64148C20.1865 6.82348 20.6563 5.73647 20.6563 4.57947C20.6563 3.42247 20.1897 2.33643 19.3366 1.51843ZM7.2605 17.1145C7.06675 17.3005 6.82302 17.4205 6.55427 17.4635L1.96258 18.1975L2.72717 13.7905C2.77197 13.5315 2.89801 13.2975 3.09071 13.1125L11.5105 5.02954L15.6792 9.03149L7.2605 17.1145ZM18.2324 6.58154L16.7845 7.97144L12.6157 3.96948L14.0636 2.57947C14.6209 2.04547 15.3605 1.75049 16.148 1.75049C16.9355 1.75049 17.6761 2.04447 18.2324 2.57947C18.7886 3.11447 19.0959 3.82444 19.0959 4.58044C19.0959 5.33644 18.7886 6.04654 18.2324 6.58154Z" fill="#FEAF00"/>
</svg>
