<svg width="20" height="20" viewBox="0 0 20 20" fill="none" xmlns="http://www.w3.org/2000/svg">
<path d="M8.5 12.9997V15.9997C8.5 16.2757 8.276 16.4997 8 16.4997C7.724 16.4997 7.5 16.2757 7.5 15.9997V12.9997C7.5 12.7237 7.724 12.4997 8 12.4997C8.276 12.4997 8.5 12.7227 8.5 12.9997ZM12 12.4997C11.724 12.4997 11.5 12.7237 11.5 12.9997V15.9997C11.5 16.2757 11.724 16.4997 12 16.4997C12.276 16.4997 12.5 16.2757 12.5 15.9997V12.9997C12.5 12.7227 12.276 12.4997 12 12.4997ZM17.965 10.3047L17.182 16.4427C16.96 18.1857 15.467 19.4997 13.71 19.4997H6.31201C4.56101 19.4997 3.06901 18.1907 2.84201 16.4547L2.03601 10.3057C1.13501 9.92773 0.5 9.03673 0.5 7.99973C0.5 6.62173 1.622 5.49973 3 5.49973H4.71701L7.57101 0.742738C7.71301 0.505738 8.01899 0.429717 8.25699 0.571717C8.49399 0.713717 8.57001 1.02072 8.42801 1.25772L5.88199 5.50073H14.116L11.57 1.25772C11.428 1.02072 11.505 0.713717 11.741 0.571717C11.978 0.429717 12.285 0.506738 12.427 0.742738L15.281 5.49973H17C18.378 5.49973 19.5 6.62173 19.5 7.99973C19.5 9.03573 18.866 9.92672 17.965 10.3047ZM16.19 16.3157L16.932 10.4997H3.07001L3.83401 16.3247C3.99601 17.5647 5.06199 18.4997 6.31299 18.4997H13.711C14.965 18.4997 16.031 17.5607 16.19 16.3157ZM18.5 7.99973C18.5 7.17273 17.827 6.49973 17 6.49973H3C2.173 6.49973 1.5 7.17273 1.5 7.99973C1.5 8.82673 2.173 9.49973 3 9.49973H17C17.827 9.49973 18.5 8.82673 18.5 7.99973Z" fill="#c7c7c7"/>
</svg>
