<svg width="20" height="18" viewBox="0 0 20 18" fill="none" xmlns="http://www.w3.org/2000/svg">
<path d="M19.4102 6.75073C19.1922 6.07273 18.6151 5.58873 17.9031 5.48672L13.5942 4.86972L11.6682 1.02472C11.3522 0.392719 10.7122 0.000732422 10.0002 0.000732422C9.28816 0.000732422 8.64817 0.393719 8.33217 1.02472L6.40617 4.86972L2.09715 5.48672C1.38515 5.58873 0.808161 6.07273 0.590161 6.75073C0.374161 7.42073 0.55715 8.14174 1.06715 8.63174L4.18116 11.6217L3.44615 15.8427C3.32615 16.5317 3.60416 17.2187 4.17216 17.6347C4.75116 18.0587 5.50615 18.1177 6.14515 17.7867L10.0012 15.7887L13.8572 17.7867C14.1312 17.9297 14.4282 17.9987 14.7232 17.9987C15.1132 17.9987 15.5002 17.8757 15.8302 17.6347C16.3982 17.2177 16.6762 16.5317 16.5562 15.8427L15.8211 11.6217L18.9352 8.63074C19.4432 8.14074 19.6252 7.42073 19.4102 6.75073ZM18.2402 7.90973L14.9342 11.0847C14.8142 11.1997 14.7592 11.3677 14.7882 11.5317L15.5682 16.0147C15.6232 16.3317 15.4992 16.6357 15.2362 16.8287C14.9622 17.0297 14.6172 17.0567 14.3152 16.8997L10.2292 14.7827C10.1572 14.7447 10.0782 14.7267 9.99916 14.7267C9.92016 14.7267 9.84115 14.7457 9.76915 14.7827L5.68315 16.8997C5.37915 17.0567 5.03616 17.0297 4.76216 16.8287C4.49916 16.6357 4.37516 16.3317 4.43016 16.0147L5.21016 11.5317C5.23816 11.3677 5.18416 11.1997 5.06416 11.0847L1.75816 7.91074C1.52316 7.68374 1.44114 7.36574 1.54014 7.05774C1.64214 6.74274 1.90216 6.52475 2.23716 6.47675L6.80516 5.82272C6.96716 5.79972 7.10816 5.69773 7.18116 5.55173L9.22416 1.47174C9.52016 0.880741 10.4762 0.880741 10.7722 1.47174L12.8152 5.55072C12.8892 5.69672 13.0291 5.79875 13.1911 5.82175L17.7592 6.47574C18.0942 6.52374 18.3552 6.74073 18.4562 7.05673C18.5572 7.36473 18.4762 7.68373 18.2402 7.90973Z" fill="black"/>
</svg>
