<svg width="20" height="18" viewBox="0 0 20 18" fill="none" xmlns="http://www.w3.org/2000/svg">
<path d="M14.4995 14.6375V15.1445C14.4995 15.9565 14.1995 16.7345 13.6555 17.3345C13.5565 17.4435 13.4215 17.4985 13.2845 17.4985C13.1645 17.4985 13.0445 17.4555 12.9485 17.3695C12.7435 17.1835 12.7285 16.8675 12.9135 16.6625C13.2905 16.2465 13.4985 15.7065 13.4985 15.1435V14.6365C13.4985 13.1625 12.5055 11.8865 11.0825 11.5325C10.7955 11.4605 10.4895 11.5005 10.2415 11.6405C8.53652 12.5765 6.45452 12.5735 4.75952 11.6435C4.50652 11.4995 4.20049 11.4605 3.91449 11.5325C2.49149 11.8855 1.49854 13.1615 1.49854 14.6365V15.1435C1.49854 15.7055 1.7065 16.2455 2.0835 16.6625C2.2695 16.8675 2.25352 17.1835 2.04852 17.3685C1.84352 17.5535 1.52753 17.5385 1.34253 17.3335C0.798529 16.7325 0.498535 15.9545 0.498535 15.1435V14.6365C0.498535 12.7015 1.80349 11.0265 3.67249 10.5625C4.20349 10.4305 4.77648 10.5055 5.24548 10.7705C6.63648 11.5335 8.35449 11.5365 9.75549 10.7675C10.2195 10.5055 10.7925 10.4295 11.3245 10.5635C13.1945 11.0285 14.4995 12.7035 14.4995 14.6375ZM16.3255 10.5635C16.0575 10.4965 15.7855 10.6595 15.7195 10.9285C15.6535 11.1965 15.8165 11.4685 16.0845 11.5345C17.5065 11.8875 18.5005 13.1635 18.5005 14.6385V15.1455C18.5005 15.7085 18.2925 16.2485 17.9155 16.6645C17.7305 16.8695 17.7455 17.1855 17.9505 17.3715C18.0465 17.4575 18.1665 17.5005 18.2865 17.5005C18.4225 17.5005 18.5585 17.4455 18.6575 17.3365C19.2015 16.7355 19.5015 15.9585 19.5015 15.1465V14.6395C19.4995 12.7035 18.1945 11.0285 16.3255 10.5635ZM2.99951 4.99951C2.99951 2.51851 5.01851 0.499512 7.49951 0.499512C9.98051 0.499512 11.9995 2.51851 11.9995 4.99951C11.9995 7.48051 9.98051 9.49951 7.49951 9.49951C5.01851 9.49951 2.99951 7.48051 2.99951 4.99951ZM3.99951 4.99951C3.99951 6.92951 5.56951 8.49951 7.49951 8.49951C9.42951 8.49951 10.9995 6.92951 10.9995 4.99951C10.9995 3.06951 9.42951 1.49951 7.49951 1.49951C5.56951 1.49951 3.99951 3.06951 3.99951 4.99951ZM13.0615 0.533508C12.7885 0.501508 12.5375 0.693499 12.5035 0.967499C12.4695 1.2415 12.6635 1.49151 12.9375 1.52551C14.6835 1.74351 15.9995 3.2365 15.9995 4.9985C15.9995 6.0655 15.5205 7.0615 14.6875 7.7305C14.4725 7.9035 14.4375 8.2185 14.6105 8.4335C14.7095 8.5565 14.8545 8.62051 15.0015 8.62051C15.1105 8.62051 15.2215 8.5845 15.3135 8.5105C16.3855 7.6505 17.0005 6.3695 17.0005 4.9975C16.9995 2.7335 15.3065 0.813508 13.0615 0.533508Z" fill="#c7c7c7"/>
</svg>
