<svg width="18" height="20" viewBox="0 0 18 20" fill="none" xmlns="http://www.w3.org/2000/svg">
<path d="M17.4547 13.6465L16.3487 11.8005C15.9527 11.1405 15.7447 10.3855 15.7447 9.61646V6.9895C15.7447 3.2735 12.7187 0.249512 8.99968 0.249512C5.28068 0.249512 2.25466 3.2725 2.25466 6.9895V9.61646C2.25466 10.3855 2.04566 11.1405 1.65066 11.8005L0.544674 13.6465C0.159674 14.2875 0.150673 15.0595 0.518673 15.7095C0.887673 16.3615 1.55466 16.7505 2.30366 16.7505H6.28367C6.27567 16.8345 6.25067 16.9155 6.25067 17.0005C6.25067 18.5175 7.48367 19.7505 9.00067 19.7505C10.5177 19.7505 11.7507 18.5175 11.7507 17.0005C11.7507 16.9155 11.7257 16.8345 11.7177 16.7505H15.6977C16.4467 16.7505 17.1147 16.3615 17.4827 15.7104C17.8497 15.0594 17.8397 14.2875 17.4547 13.6465ZM10.2487 17.0005C10.2487 17.6895 9.68767 18.2505 8.99867 18.2505C8.30967 18.2505 7.74867 17.6895 7.74867 17.0005C7.74867 16.9155 7.76467 16.8325 7.78167 16.7505H10.2157C10.2327 16.8325 10.2487 16.9155 10.2487 17.0005ZM16.1757 14.9705C16.1277 15.0545 15.9867 15.2495 15.6957 15.2495H2.30166C2.01166 15.2495 1.86967 15.0545 1.82167 14.9705C1.77467 14.8865 1.67967 14.6655 1.82867 14.4175L2.93467 12.5715C3.47067 11.6785 3.75267 10.6565 3.75267 9.61646V6.9895C3.75267 4.1005 6.10566 1.74951 8.99766 1.74951C11.8897 1.74951 14.2427 4.1005 14.2427 6.9895V9.61646C14.2427 10.6565 14.5257 11.6785 15.0607 12.5715L16.1667 14.4175C16.3167 14.6655 16.2227 14.8865 16.1757 14.9705Z" fill="#41416E"/>
</svg>
