<svg width="20" height="20" viewBox="0 0 20 20" fill="none" xmlns="http://www.w3.org/2000/svg">
<path d="M14.354 7.646C14.549 7.841 14.549 8.158 14.354 8.353L9.354 13.353C9.256 13.451 9.128 13.499 9 13.499C8.872 13.499 8.744 13.45 8.646 13.353L5.646 10.353C5.451 10.158 5.451 9.841 5.646 9.646C5.841 9.451 6.158 9.451 6.353 9.646L8.99899 12.292L13.645 7.646C13.842 7.451 14.158 7.451 14.354 7.646ZM19.5 10C19.5 15.238 15.238 19.5 10 19.5C4.762 19.5 0.5 15.238 0.5 10C0.5 4.762 4.762 0.5 10 0.5C15.238 0.5 19.5 4.761 19.5 10ZM18.5 10C18.5 5.313 14.687 1.5 10 1.5C5.313 1.5 1.5 5.313 1.5 10C1.5 14.687 5.313 18.5 10 18.5C14.687 18.5 18.5 14.687 18.5 10Z" fill="#41416E"/>
</svg>
