<svg width="36" height="36" viewBox="0 0 36 36" fill="none" xmlns="http://www.w3.org/2000/svg">
<mask id="mask0_1_1857" style="mask-type:alpha" maskUnits="userSpaceOnUse" x="0" y="0" width="36" height="36">
<circle cx="18.4489" cy="18.002" r="17.5292" fill="#FFC145"/>
</mask>
<g mask="url(#mask0_1_1857)">
<path d="M29.2816 37.6196V34.0387C29.2816 32.1393 28.7109 30.3177 27.6952 28.9747C26.6794 27.6316 25.3017 26.877 23.8652 26.877H13.0324C11.5959 26.877 10.2182 27.6316 9.2024 28.9747C8.18662 30.3177 7.61597 32.1393 7.61597 34.0387V37.6196" fill="#197BBD"/>
<path d="M18.4474 21.4599C21.4388 21.4599 23.8638 19.0349 23.8638 16.0435C23.8638 13.0521 21.4388 10.627 18.4474 10.627C15.456 10.627 13.031 13.0521 13.031 16.0435C13.031 19.0349 15.456 21.4599 18.4474 21.4599Z" fill="white"/>
</g>
</svg>
