<svg width="20" height="20" viewBox="0 0 20 20" fill="none" xmlns="http://www.w3.org/2000/svg">
<path d="M19.5301 18.469L14.8361 13.775C16.0301 12.344 16.7501 10.505 16.7501 8.5C16.7501 3.951 13.0491 0.25 8.50012 0.25C3.95112 0.25 0.250122 3.951 0.250122 8.5C0.250122 13.049 3.95112 16.75 8.50012 16.75C10.5051 16.75 12.3441 16.0301 13.7751 14.8361L18.4691 19.53C18.6151 19.676 18.8071 19.75 18.9991 19.75C19.1911 19.75 19.3831 19.677 19.5291 19.53C19.8231 19.237 19.8231 18.762 19.5301 18.469ZM1.75012 8.5C1.75012 4.778 4.77812 1.75 8.50012 1.75C12.2221 1.75 15.2501 4.778 15.2501 8.5C15.2501 12.222 12.2221 15.25 8.50012 15.25C4.77812 15.25 1.75012 12.222 1.75012 8.5Z" fill="#C4C4C4"/>
</svg>
